# xmcd
#
# Track frame offsets:
#	150
#	38783
#	52881
#	77470
#	116955
#	122560
#	151836
#	157010
#	258021
#	277789
#
# Disc length: 3973 seconds
#
# Revision: 1
# Processed by: cddbd v1.5.2PL0 Copyright (c) Steve Scherf et al.
# Submitted via: audiograbber 1.83.01
#
DISCID=710f830a
DTITLE=Grateful Dead - 70-01-16 Springer's Inn, Portland OR
DYEAR=1900
DGENRE=
TTITLE0=Easy Wind
TTITLE1=Cryptical Envelopment
TTITLE2=Drums
TTITLE3=The Other One
TTITLE4=Cryptical Envelopment
TTITLE5=Cosmic Charlie
TTITLE6=Cumberland Blues
TTITLE7=Dark Star
TTITLE8=St Stephen
TTITLE9=Mason's Children
EXTD=
EXTT0=
EXTT1=
EXTT2=
EXTT3=
EXTT4=
EXTT5=
EXTT6=
EXTT7=
EXTT8=
EXTT9=
PLAYORDER=
